# Flat disc, radius=1.000, 64 segments
# Generated for bee_platform.sdf's platform_link top visual.
mtllib flower_disc.mtl
v 0.0 0.0 0.0
vt 0.5 0.5
vn 0.0 0.0 1.0
v 1.000000 0.000000 0.0
vt 1.000000 0.500000
vn 0.0 0.0 1.0
v 0.995185 0.098017 0.0
vt 0.997592 0.549009
vn 0.0 0.0 1.0
v 0.980785 0.195090 0.0
vt 0.990393 0.597545
vn 0.0 0.0 1.0
v 0.956940 0.290285 0.0
vt 0.978470 0.645142
vn 0.0 0.0 1.0
v 0.923880 0.382683 0.0
vt 0.961940 0.691342
vn 0.0 0.0 1.0
v 0.881921 0.471397 0.0
vt 0.940961 0.735698
vn 0.0 0.0 1.0
v 0.831470 0.555570 0.0
vt 0.915735 0.777785
vn 0.0 0.0 1.0
v 0.773010 0.634393 0.0
vt 0.886505 0.817197
vn 0.0 0.0 1.0
v 0.707107 0.707107 0.0
vt 0.853553 0.853553
vn 0.0 0.0 1.0
v 0.634393 0.773010 0.0
vt 0.817197 0.886505
vn 0.0 0.0 1.0
v 0.555570 0.831470 0.0
vt 0.777785 0.915735
vn 0.0 0.0 1.0
v 0.471397 0.881921 0.0
vt 0.735698 0.940961
vn 0.0 0.0 1.0
v 0.382683 0.923880 0.0
vt 0.691342 0.961940
vn 0.0 0.0 1.0
v 0.290285 0.956940 0.0
vt 0.645142 0.978470
vn 0.0 0.0 1.0
v 0.195090 0.980785 0.0
vt 0.597545 0.990393
vn 0.0 0.0 1.0
v 0.098017 0.995185 0.0
vt 0.549009 0.997592
vn 0.0 0.0 1.0
v 0.000000 1.000000 0.0
vt 0.500000 1.000000
vn 0.0 0.0 1.0
v -0.098017 0.995185 0.0
vt 0.450991 0.997592
vn 0.0 0.0 1.0
v -0.195090 0.980785 0.0
vt 0.402455 0.990393
vn 0.0 0.0 1.0
v -0.290285 0.956940 0.0
vt 0.354858 0.978470
vn 0.0 0.0 1.0
v -0.382683 0.923880 0.0
vt 0.308658 0.961940
vn 0.0 0.0 1.0
v -0.471397 0.881921 0.0
vt 0.264302 0.940961
vn 0.0 0.0 1.0
v -0.555570 0.831470 0.0
vt 0.222215 0.915735
vn 0.0 0.0 1.0
v -0.634393 0.773010 0.0
vt 0.182803 0.886505
vn 0.0 0.0 1.0
v -0.707107 0.707107 0.0
vt 0.146447 0.853553
vn 0.0 0.0 1.0
v -0.773010 0.634393 0.0
vt 0.113495 0.817197
vn 0.0 0.0 1.0
v -0.831470 0.555570 0.0
vt 0.084265 0.777785
vn 0.0 0.0 1.0
v -0.881921 0.471397 0.0
vt 0.059039 0.735698
vn 0.0 0.0 1.0
v -0.923880 0.382683 0.0
vt 0.038060 0.691342
vn 0.0 0.0 1.0
v -0.956940 0.290285 0.0
vt 0.021530 0.645142
vn 0.0 0.0 1.0
v -0.980785 0.195090 0.0
vt 0.009607 0.597545
vn 0.0 0.0 1.0
v -0.995185 0.098017 0.0
vt 0.002408 0.549009
vn 0.0 0.0 1.0
v -1.000000 0.000000 0.0
vt 0.000000 0.500000
vn 0.0 0.0 1.0
v -0.995185 -0.098017 0.0
vt 0.002408 0.450991
vn 0.0 0.0 1.0
v -0.980785 -0.195090 0.0
vt 0.009607 0.402455
vn 0.0 0.0 1.0
v -0.956940 -0.290285 0.0
vt 0.021530 0.354858
vn 0.0 0.0 1.0
v -0.923880 -0.382683 0.0
vt 0.038060 0.308658
vn 0.0 0.0 1.0
v -0.881921 -0.471397 0.0
vt 0.059039 0.264302
vn 0.0 0.0 1.0
v -0.831470 -0.555570 0.0
vt 0.084265 0.222215
vn 0.0 0.0 1.0
v -0.773010 -0.634393 0.0
vt 0.113495 0.182803
vn 0.0 0.0 1.0
v -0.707107 -0.707107 0.0
vt 0.146447 0.146447
vn 0.0 0.0 1.0
v -0.634393 -0.773010 0.0
vt 0.182803 0.113495
vn 0.0 0.0 1.0
v -0.555570 -0.831470 0.0
vt 0.222215 0.084265
vn 0.0 0.0 1.0
v -0.471397 -0.881921 0.0
vt 0.264302 0.059039
vn 0.0 0.0 1.0
v -0.382683 -0.923880 0.0
vt 0.308658 0.038060
vn 0.0 0.0 1.0
v -0.290285 -0.956940 0.0
vt 0.354858 0.021530
vn 0.0 0.0 1.0
v -0.195090 -0.980785 0.0
vt 0.402455 0.009607
vn 0.0 0.0 1.0
v -0.098017 -0.995185 0.0
vt 0.450991 0.002408
vn 0.0 0.0 1.0
v -0.000000 -1.000000 0.0
vt 0.500000 0.000000
vn 0.0 0.0 1.0
v 0.098017 -0.995185 0.0
vt 0.549009 0.002408
vn 0.0 0.0 1.0
v 0.195090 -0.980785 0.0
vt 0.597545 0.009607
vn 0.0 0.0 1.0
v 0.290285 -0.956940 0.0
vt 0.645142 0.021530
vn 0.0 0.0 1.0
v 0.382683 -0.923880 0.0
vt 0.691342 0.038060
vn 0.0 0.0 1.0
v 0.471397 -0.881921 0.0
vt 0.735698 0.059039
vn 0.0 0.0 1.0
v 0.555570 -0.831470 0.0
vt 0.777785 0.084265
vn 0.0 0.0 1.0
v 0.634393 -0.773010 0.0
vt 0.817197 0.113495
vn 0.0 0.0 1.0
v 0.707107 -0.707107 0.0
vt 0.853553 0.146447
vn 0.0 0.0 1.0
v 0.773010 -0.634393 0.0
vt 0.886505 0.182803
vn 0.0 0.0 1.0
v 0.831470 -0.555570 0.0
vt 0.915735 0.222215
vn 0.0 0.0 1.0
v 0.881921 -0.471397 0.0
vt 0.940961 0.264302
vn 0.0 0.0 1.0
v 0.923880 -0.382683 0.0
vt 0.961940 0.308658
vn 0.0 0.0 1.0
v 0.956940 -0.290285 0.0
vt 0.978470 0.354858
vn 0.0 0.0 1.0
v 0.980785 -0.195090 0.0
vt 0.990393 0.402455
vn 0.0 0.0 1.0
v 0.995185 -0.098017 0.0
vt 0.997592 0.450991
vn 0.0 0.0 1.0

o flower_disc
usemtl flower_disc
f 1/1/1 2/2/2 3/3/3
f 1/1/1 3/3/3 4/4/4
f 1/1/1 4/4/4 5/5/5
f 1/1/1 5/5/5 6/6/6
f 1/1/1 6/6/6 7/7/7
f 1/1/1 7/7/7 8/8/8
f 1/1/1 8/8/8 9/9/9
f 1/1/1 9/9/9 10/10/10
f 1/1/1 10/10/10 11/11/11
f 1/1/1 11/11/11 12/12/12
f 1/1/1 12/12/12 13/13/13
f 1/1/1 13/13/13 14/14/14
f 1/1/1 14/14/14 15/15/15
f 1/1/1 15/15/15 16/16/16
f 1/1/1 16/16/16 17/17/17
f 1/1/1 17/17/17 18/18/18
f 1/1/1 18/18/18 19/19/19
f 1/1/1 19/19/19 20/20/20
f 1/1/1 20/20/20 21/21/21
f 1/1/1 21/21/21 22/22/22
f 1/1/1 22/22/22 23/23/23
f 1/1/1 23/23/23 24/24/24
f 1/1/1 24/24/24 25/25/25
f 1/1/1 25/25/25 26/26/26
f 1/1/1 26/26/26 27/27/27
f 1/1/1 27/27/27 28/28/28
f 1/1/1 28/28/28 29/29/29
f 1/1/1 29/29/29 30/30/30
f 1/1/1 30/30/30 31/31/31
f 1/1/1 31/31/31 32/32/32
f 1/1/1 32/32/32 33/33/33
f 1/1/1 33/33/33 34/34/34
f 1/1/1 34/34/34 35/35/35
f 1/1/1 35/35/35 36/36/36
f 1/1/1 36/36/36 37/37/37
f 1/1/1 37/37/37 38/38/38
f 1/1/1 38/38/38 39/39/39
f 1/1/1 39/39/39 40/40/40
f 1/1/1 40/40/40 41/41/41
f 1/1/1 41/41/41 42/42/42
f 1/1/1 42/42/42 43/43/43
f 1/1/1 43/43/43 44/44/44
f 1/1/1 44/44/44 45/45/45
f 1/1/1 45/45/45 46/46/46
f 1/1/1 46/46/46 47/47/47
f 1/1/1 47/47/47 48/48/48
f 1/1/1 48/48/48 49/49/49
f 1/1/1 49/49/49 50/50/50
f 1/1/1 50/50/50 51/51/51
f 1/1/1 51/51/51 52/52/52
f 1/1/1 52/52/52 53/53/53
f 1/1/1 53/53/53 54/54/54
f 1/1/1 54/54/54 55/55/55
f 1/1/1 55/55/55 56/56/56
f 1/1/1 56/56/56 57/57/57
f 1/1/1 57/57/57 58/58/58
f 1/1/1 58/58/58 59/59/59
f 1/1/1 59/59/59 60/60/60
f 1/1/1 60/60/60 61/61/61
f 1/1/1 61/61/61 62/62/62
f 1/1/1 62/62/62 63/63/63
f 1/1/1 63/63/63 64/64/64
f 1/1/1 64/64/64 65/65/65
f 1/1/1 65/65/65 2/2/2
